<?xml version="1.0" encoding="UTF-8" standalone="no"?>
<svg version="1.1" xmlns="http://www.w3.org/2000/svg" xmlns:xlink="http://www.w3.org/1999/xlink" x="0px" y="0px" width="510.2px"
	 height="510.2px" viewBox="0 0 510.2 510.2" style="enable-background:new 0 0 510.2 510.2;" xml:space="preserve">
<style type="text/css">
<![CDATA[
		svg {
			margin: 10px auto;
		}

		.st4 {
		  fill: none;
		  stroke-width: 2px;
		  stroke: #FF8600;
		  stroke-dasharray: 300;
		  stroke-dashoffset: 300;
		  -webkit-animation: 15s l-outline alternate infinite;
				  animation: 15s l-outline alternate infinite;
		  -webkit-animation-timing-function: ease-in-out;
				  animation-timing-function: ease-in-out;
		  -webkit-animation-delay: 3s;
				  animation-delay: 3s;
		}

		.st4xl {
		  fill: none;
		  stroke-width: 2px;
		  stroke: #FF8600;
		  stroke-dasharray: 630;
		  stroke-dashoffset: 630;
		  -webkit-animation: 15s xl-outline alternate infinite;
				  animation: 15s xl-outline alternate infinite;
		  -webkit-animation-timing-function: ease-in-out;
				  animation-timing-function: ease-in-out;
		  -webkit-animation-delay: 3s;
				  animation-delay: 3s;
		}

		.st6 {
		  fill: #FFFFFF;
		}

		@-webkit-keyframes xl-outline {
		  from {
			stroke-dashoffset: 630;
		  }
		  80% {
			stroke-dashoffset: 0;
		  }
		  to {
			stroke-dashoffset: 0;
		  }
		}

		@keyframes xl-outline {
		  from {
			stroke-dashoffset: 630;
		  }
		  80% {
			stroke-dashoffset: 0;
		  }
		  to {
			stroke-dashoffset: 0;
		  }
		}
		@-webkit-keyframes l-outline {
		  from {
			stroke-dashoffset: 300;
		  }
		  80% {
			stroke-dashoffset: 0;
		  }
		  to {
			stroke-dashoffset: 0;
		  }
		}
		@keyframes l-outline {
		  from {
			stroke-dashoffset: 300;
		  }
		  80% {
			stroke-dashoffset: 0;
		  }
		  to {
			stroke-dashoffset: 0;
		  }
		}

	.st2{clip-path:url(#SVGID_2_);fill:url(#SVGID_5_);}
	.st3{clip-path:url(#SVGID_2_);fill:url(#SVGID_7_);}
	.st5{clip-path:url(#SVGID_2_);fill:none;stroke:url(#SVGID_6_);stroke-miterlimit:10;}
	.st8{clip-path:url(#SVGID_2_);fill:none;stroke:url(#SVGID_8_);stroke-miterlimit:10;}
]]>
</style>
<pattern  width="288.6" height="306.4" patternUnits="userSpaceOnUse" id="Unnamed_Pattern_5" viewBox="0 -306.4 288.6 306.4" style="overflow:visible;">
	<g>
		<path class="st6" d="M85.7-132.1c0.5,0.3,0.9,0.4,1.4,0.4c0.8,0,1.2-0.8,0.8-1.5c-0.4-0.6,0.6-1.3-1-1.8c-1.2-0.4-0.9,0.9-1.2,1.3
			C85.3-133.1,85.1-132.4,85.7-132.1"/>
		<path class="st6" d="M88.7-91.1c-1.3-1.8-1.3-1.4-4-0.7C86.9-90,86.3-90.3,88.7-91.1"/>
		<path class="st6" d="M43.9-154.8c-0.8,1,0,1.3,0.6,1.7c0.3,0.2,0.7,0.7,1,0.1c0.2-0.6,1.4-1.4,0.2-2
			C44.8-155.5,44.6-155.6,43.9-154.8"/>
		<path class="st6" d="M128.6-91.5c-0.3-0.2-0.6-0.2-0.9,0c-2,1.6-0.3,2,1.8,1.2c0.8-0.3-0.1-0.6-0.3-0.8
			C128.9-91.3,128.7-91.4,128.6-91.5"/>
		<path class="st6" d="M24.6-89.6c0.1-0.9,0.7-1.5,1.4-2c0.1-0.1,0.1-0.3-0.1-0.4c-0.9-0.1-1.5-0.6-2.1-1.5
			c-0.1-0.2-0.4-0.1-0.4,0.1c-0.1,1-0.5,1.7-1.3,2.2c-0.1,0.1-0.1,0.3,0.1,0.4c0.9,0.3,1.5,0.8,2,1.4C24.4-89.3,24.6-89.4,24.6-89.6
			"/>
		<path class="st6" d="M148-50.7c-0.1,0.9,0.3,1.7,1.2,2c0.4,0.1,0.6,0,0.9-0.4c1.1-1.2-0.1-1.7-0.8-2
			C147.9-51.7,148.1-51.5,148-50.7"/>
		<path class="st6" d="M108.7-92.4c-1.2,0-2.6,1.2-2,1.6c1.1,0.9,0.8-0.4,1-0.7C107.9-92.2,108.3-92,108.7-92.4"/>
		<path class="st6" d="M129.2-26.7c1.5-3-1.8-2.7-1.2-4.6C126.9-30.9,126.6-28.8,129.2-26.7"/>
		<path class="st6" d="M44.8-135.2c-1.6,0.9-1.2,2.2-0.7,3.6c0.2,0.4,0.8,0.5,1,0.2c0.7-1,1.2-2.2,0.5-3.5
			C45.5-135.3,45.1-135.4,44.8-135.2"/>
		<path class="st6" d="M1.4-91.5c1.2,0.9,2.4,2,4,0.7c0.1-0.1,0.1-0.2,0.1-0.3c-0.7-2.5-2.5-1.2-4-0.9C1.2-92,1.2-91.7,1.4-91.5"/>
		<path class="st6" d="M43.5-91.7c1.4,0.7,3.3,1.9,2.5,0.3C45-93.5,44.8-91,43.5-91.7"/>
		<path class="st6" d="M148-7.8c-0.3,0.5,0.6,0.8,1,1.1c0.5,0.4,0.7-0.1,1-0.5c0.3-0.4,0.8-0.9,0.2-1.3C148.5-9.9,149-9.7,148-7.8"
			/>
		<path class="st6" d="M147.7-91.1c0.4,0.4,0.8,0.7,1.2,0.7c0.5,0.1,0.9,0,1.3-0.2c0.7-0.4,0.7-1.4,0-1.8c0,0,0,0,0,0
			c-0.5-0.4-1.3-0.3-1.6,0.2C148.3-91.7,148-91.4,147.7-91.1"/>
		<path class="st6" d="M108.7-132.2c0.3-0.8-0.1-1.6-0.5-2.2c-0.2-0.4-0.8-0.4-1,0.1c-0.1,0.3-0.3,0.6-0.6,0.9
			c-0.3,0.3-0.1,0.8,0.3,0.9c0.3,0.1,0.6,0.3,0.9,0.6C108-131.7,108.5-131.8,108.7-132.2"/>
		<path class="st6" d="M127.6-48.4c1.9-1.1,2.7-1.8,1.7-3.4C128.1-50.6,125.9-50.3,127.6-48.4"/>
		<path class="st6" d="M44.4-6.3c2-1.2,2.5-3.2,0.8-3.4C42.4-10,43.6-8.4,44.4-6.3"/>
		<path class="st6" d="M45.6-27.5c-0.1-1.6,1.3-2.7-0.8-3.8C42.1-29.3,45.2-29,45.6-27.5"/>
		<path class="st6" d="M150.2-153.7c0.4-0.4,0.3-0.7,0-1.1c-0.4-0.4-0.8-0.7-1.4-0.4c-0.4,0.2-0.9,0.5-0.7,0.9
			C149.3-152.4,148.5-152.4,150.2-153.7"/>
		<path class="st6" d="M24.7-48.4c1.2-1.4,0.3-2.3-0.5-3.3c-0.3-0.3-0.8-0.2-1,0.2c-0.3,1.2-0.8,2.4,0.8,3.2
			C24.3-48.2,24.6-48.2,24.7-48.4"/>
		<path class="st6" d="M23.5-135.4c-1.2,1.7-0.1,3,1,4.2C25.4-132.8,26.1-134.5,23.5-135.4"/>
		<path class="st6" d="M127.6-155.5c-0.4,1.2-0.7,2.4,0.7,3.2c0.3,0.2,0.7,0,0.8-0.3c0.5-1.1,0.2-2.2-0.6-3.1
			C128.3-156,127.7-155.9,127.6-155.5"/>
		<path class="st6" d="M63.9-90.9c1.4,1.1,2.5,0.1,3.6-0.6c0.3-0.2,0.2-0.6-0.1-0.6c-1.3-0.3-2.7-1-3.6,0.8
			C63.8-91.2,63.8-91,63.9-90.9"/>
		<path class="st6" d="M22.7-28.8c-0.2,0.3-0.1,0.7,0.2,0.8c0.6,0.3,1.2,0.5,2.3-0.5c0.9-0.8-0.4-0.9-0.5-1.5
			c-0.1-0.3-0.4-0.5-0.7-0.4C23.2-30.1,23-29.3,22.7-28.8"/>
		<path class="st6" d="M24.1-152.5c1.7-2.8,0.9-1.5,0.3-3.3C22-154.9,23.5-151.5,24.1-152.5"/>
		<path class="st6" d="M127.7-73.1c-1.1,1.8,0.2,4.8,0.9,4.6C129.8-68.7,129.9-71.9,127.7-73.1"/>
		<path class="st6" d="M87.5-51.3c-1,0-3.2,0.1-1.9,1.9c0.9,1.2,1.3,0.2,1.8-0.1C89.6-50.7,86.3-50.6,87.5-51.3"/>
		<path class="st6" d="M106.9-51.5c-0.4,1.2-1.3,2.5,0.8,3.1c0.1,0,0.3,0,0.4-0.1c1.4-1.3,0.6-2.3-0.5-3.2
			C107.3-51.8,107-51.7,106.9-51.5"/>
		<path class="st6" d="M126.9-133.9c0.8,0.7,1,1,1.3,2c0.1,0.3,0.4,0.3,0.6,0.1c0.6-0.8,1.6-1.2,1.1-2.3c-0.7-1.4-1.6-0.5-2.8-0.4
			C126.8-134.5,126.7-134.1,126.9-133.9"/>
		<path class="st6" d="M151.4-28.5c-1.8-1.6-1.8-2.1-4.3-1.5c1,0.6,1.6,0.5,1.8,1.5C149.7-28.8,150.7-27.6,151.4-28.5"/>
		<path class="st6" d="M2.8-6.5C4.4-7,5.1-7.8,4.3-9C4-9.5,3.4-9.7,2.9-9.4C1.8-8.8,1.9-7.8,2.8-6.5L2.8-6.5z"/>
		<path class="st6" d="M23.2-9.2c-0.3,1-0.2,1.9,0.6,2.7c0.3,0.3,0.8,0.2,1-0.2c0.6-1.1,0.5-2-0.6-2.8C23.9-9.8,23.3-9.6,23.2-9.2"
			/>
		<path class="st6" d="M25.6-70.9c-0.1-0.9-1.2-1.3-1.9-0.7c-0.3,0.2-0.6,0.4-1,0.4c0.9,0.3,0.7,2.2,2.3,1.3
			C25.5-70.3,25.7-70.6,25.6-70.9"/>
		<path class="st6" d="M44.9-113.9c-0.8,0.4-2.4,1.4-0.7,2.4c1.3,0.7,0.7,0.4,1.5-1.5C46.1-113.8,46.8-114.7,44.9-113.9"/>
		<path class="st6" d="M106.8-28.1c0.7-2,2.1-1.2,1.2-1.9C106.9-31,107.2-30.2,106.8-28.1"/>
		<path class="st6" d="M86.4-111.4c0.1,0.1,0.3,0.1,0.4,0c0.6-0.6,2.5-0.9,0.9-1.8c-0.7-0.4-1.8-1-2.3-0.4
			C84.3-112.4,85.9-112.1,86.4-111.4"/>
		<path class="st6" d="M127.8-111.8c0.7,0.4,0.9,0.1,1.1-0.4c0.3-0.5,1.2-0.9,0.1-1.6C128.5-114,126.1-112.8,127.8-111.8"/>
		<path class="st6" d="M108.2-8.7c-1.4-0.7-2.1,0.1-1.7,1.4C106.7-6.7,110.3-7.6,108.2-8.7"/>
		<path class="st6" d="M107.8-155.3c-0.4-0.3-2.1,0.5-1.2,2c0.5,0.7,1,0.8,1.7,0.3C110-154.2,107.3-154.8,107.8-155.3"/>
		<path class="st6" d="M44.6-72.2c-0.8,0.5-1.9,1.6-0.1,2.7c0.7,0.4,0.9,0,1.2-0.4C47-71.6,45.3-72.6,44.6-72.2"/>
		<path class="st6" d="M86.6-69c0.2-1.4,0.8-2,1.5-2.8c-1,0-1.7-1.5-2.6-0.3C84.6-71,86.1-70.4,86.6-69"/>
		<path class="st6" d="M65.3-8.6C65-8,64.8-7.7,65.5-7.2C67.1-6,66.5-10.4,65.3-8.6"/>
		<path class="st6" d="M150.6-133.3c-1.3-1.3-1.5-1.1-2-1.4c-0.2-0.1-0.4,0-0.4,0.1c-0.3,0.9-0.9,1.6,0,2.4
			C149.6-131,151.2-132.9,150.6-133.3"/>
		<path class="st6" d="M147.7-71.5c1,1.1,1.1,1.9,1.8,1.9c0.5,0,1.9-0.5,1-1.8C149.6-72.8,149-70.9,147.7-71.5"/>
		<path class="st6" d="M107.6-72.3c0.1,1.1-1.5,0.6-0.5,2.1c0.3,0.4-0.3,1.3,0.6,0.8C109.1-70.3,108.1-71.3,107.6-72.3"/>
		<path class="st6" d="M150-112.9c-0.5-0.6-0.7-0.3-1.2-0.1C146.7-112,151.2-111.4,150-112.9"/>
		<path class="st6" d="M24.5-114c-1.1,0.4-2.2,0.7-1.5,2.1c0.4,0.8,1,0.7,1.8,0.3C26.6-112.6,23.7-113,24.5-114"/>
		<path class="st6" d="M4.4-69.4c-1-1,1.1-0.3-0.6-2c-0.3-0.3-0.7-1.2-1.4-0.3C1.4-70.4,3.8-70.4,4.4-69.4"/>
		<path class="st6" d="M108.1-113.7c-0.1-0.1-0.3-0.2-0.4-0.1c-0.6,0.3-1.8,0.5-0.9,1.7c0.3,0.5,0.7,0.7,1.3,0.4
			C109.3-112.4,108.5-113.2,108.1-113.7"/>
		<path class="st6" d="M4.4-51.4c-1.5,0.4-3.3,0.3-1.9,2c0.3,0.4,0.4,1,1.2,0.5C5.1-49.9,4.8-50.4,4.4-51.4"/>
		<path class="st6" d="M64.5-28.5c0.3,0.6,0.5,0.9,2,0c0.5-0.3,0.8,0.6,0.5,0C66.1-30.2,65-28.6,64.5-28.5"/>
		<path class="st6" d="M85.3-154.1c0.4,0.3,0.8,0.7,1.1,1c0.4,0.3,1,0.2,1.3-0.2c0.3-0.5,0.6-1-0.1-1.6
			C86.7-155.5,86-154.7,85.3-154.1"/>
		<path class="st6" d="M65.5-134.5c-0.8,0.1-0.9,0.8-1,1.3c-0.2,0.8,0.6,1.2,1.1,1.2c0.6,0,0.9-0.4,1.3-0.8c0.5-0.6,0.1-1.6-0.7-1.7
			C65.9-134.5,65.7-134.5,65.5-134.5"/>
		<path class="st6" d="M66.7-152.8c-0.1-0.9-0.6-3-1.1-2.4c-0.3,0.4-1.2,1-0.5,1.7C65.5-153.2,66.1-153,66.7-152.8"/>
		<path class="st6" d="M3.9-155.1c-0.3-0.3-0.8-0.3-1.2,0c-0.4,0.3-0.6,0.7-0.6,1.2c0.1,0.4,0.8,1.1,1.3,1.1c0.8,0.1,1.1-0.9,1-1.5
			C4.5-154.5,4.2-154.8,3.9-155.1"/>
		<path class="st6" d="M128.6-7.3c0.5-0.4,0.5-0.8,0.1-1.3C127.6-9.8,127.3-6.4,128.6-7.3"/>
		<path class="st6" d="M3.8-27.9c0.5-0.9,1.4-1.3,0.1-2.3c-0.4-0.3-0.7-0.2-1.1,0.2C1.5-28.6,2.3-28.2,3.8-27.9"/>
		<path class="st6" d="M4.7-112.9c-0.7-0.4-1.3-1-1.9-1c-0.3,0-1,1-0.9,1.4c0.1,0.4,1,1.2,1.3,1.1C3.8-111.6,4.2-112.3,4.7-112.9"/>
		<path class="st6" d="M23.6-252.7c1.8-1.4,1.7-3,1-4.8C23.1-253.1,22.7-255.8,23.6-252.7"/>
		<path class="st6" d="M66.3-257.4c-2,3.4-1.7,1.9-1,4.6C67.1-255,67.1-255,66.3-257.4"/>
		<path class="st6" d="M127.5-256.1c-0.3,0.7-1.1,1.4,0.1,2.1c0.7,0.4,0.8,0.5,1.5-0.2C131-256.1,128-257.4,127.5-256.1"/>
		<path class="st6" d="M106.9-214.2c-0.7,0.5-0.6,0.8-0.2,1.4c0.5,1,0.9,1,1.7,0.4C109.6-213.2,107.6-214.6,106.9-214.2"/>
		<path class="st6" d="M2.9-212.2c1,0.8,1.3,0,1.7-0.6c0.2-0.3,0.7-0.7,0.1-1c-0.6-0.2-1.1-1.1-2-0.2C0.8-212.3,2.1-212.9,2.9-212.2
			"/>
		<path class="st6" d="M149.5-254c0.4-0.5,1.5-0.7,0.7-1.8c-0.5-0.7-0.8-0.9-1.6-0.4C147.1-255.2,148.7-253,149.5-254"/>
		<path class="st6" d="M64.3-296.8c2,3,3.6,1.3,2.8-1c-0.3-0.8-0.6,0.1-0.8,0.3C65.7-296.9,64.9-297,64.3-296.8"/>
		<path class="st6" d="M68.3-192.8c-1.5,0.1-2.1-0.9-2.9-1.9c0.1,1.4-0.6,2.2-2.2,3c1.6,0,2.5,0.4,3.2,1.7
			C66.6-191.4,67.4-192.1,68.3-192.8"/>
		<path class="st6" d="M65.6-276.9c0,1.2-0.9,1.9-2.1,2.4c2.8,0.3,3.7,0.2,4.2-0.3c0.9-1.1-0.5-0.7-0.7-1
			C66.6-276.4,66-276.6,65.6-276.9"/>
		<path class="st6" d="M131.8-297.2c-3-1.5-4.9,1.9-6.9,1.3C126.6-296.9,129.7-294.6,131.8-297.2"/>
		<path class="st6" d="M21.7-213.6c1,2.7,3,1.4,4.8,0.8C25.2-214,23.6-215,21.7-213.6"/>
		<path class="st6" d="M65.6-169.8c0.9-1.3,2.1-2.4,0.8-4.1c-0.1-0.1-0.2-0.1-0.3-0.1c-2.6,0.8-1.2,2.6-0.9,4.1
			C65.2-169.7,65.5-169.7,65.6-169.8"/>
		<path class="st6" d="M64.3-211.1c0.7-1.4,1.6-2.5,3.5-2.3c-1.5,0.3-1.5-2.4-3.1-1.6C62.5-214,65-212.4,64.3-211.1"/>
		<path class="st6" d="M26.7-276.9c-2.1-1.7-3.4,0.7-5.1,0.8c1.8-0.2,3.2,0.3,3.7,2.3C25.2-275.2,25.4-276.3,26.7-276.9"/>
		<path class="st6" d="M109.8-296.4c-1.1-1.9-2.8-1.7-4.4-0.7C106.5-295.9,107.8-294.7,109.8-296.4"/>
		<path class="st6" d="M151.4-212.6c-1.2-2-2.8-1.6-4.4-0.9C149.3-211.8,149.3-211.8,151.4-212.6"/>
		<path class="st6" d="M130.6-213.9c-1.6,0.1-3.5-1.3-4.5,0.7C128.1-210.3,129.1-213.4,130.6-213.9"/>
		<path class="st6" d="M109.4-192.9c-1.5-1.4-2.5-0.2-3.5,0.6c-0.3,0.2-0.2,0.6,0.1,0.7c1.3,0.3,2.7,1,3.5-0.8
			C109.5-192.6,109.5-192.8,109.4-192.9"/>
		<path class="st6" d="M24.3-191.2c0,0,0.1,0,0.1,0c1.2-0.4,1-2.3-0.3-2.2c-0.2,0-0.4,0-0.6,0.1C22.4-192.9,23.1-190.9,24.3-191.2"
			/>
		<path class="st6" d="M1.2-296.2c1.6,0.5,3.4,1.4,4.3-1C3.9-298.3,2.4-297.7,1.2-296.2"/>
		<path class="st6" d="M66.2-232c1.8-2-0.6-3.3-1-5C65.5-235.3,63.3-233.2,66.2-232"/>
		<path class="st6" d="M128.4-190.6c0.3-1.2,2.5-1.7,1.1-3.2c-1-1.1-1.6-0.5-2.5,0.5C126.2-192.6,127.9-189,128.4-190.6"/>
		<path class="st6" d="M5.5-192c-2.8-1.7-2.8-1.7-4.5-1C1.9-190.5,6.8-191.3,5.5-192"/>
		<path class="st6" d="M84.4-296.2c1.8,1.1,3.2-0.1,4.6-0.9C87.4-297.4,85.6-298.5,84.4-296.2"/>
		<path class="st6" d="M106.1-255.2c0.6-0.1,0.5,2.5,2.3,1.1c1.2-0.9,0.2-1.3-0.1-1.8C107.1-258,106.9-254,106.1-255.2"/>
		<path class="st6" d="M105.7-275.1c1.4,0.2,3.1,1.9,3.8-0.9C107.8-277.9,106.8-276.5,105.7-275.1"/>
		<path class="st6" d="M25.9-296c-1.5-0.2-1.7-2.1-3.1-1.4C21.1-296.6,23.9-295.5,25.9-296"/>
		<path class="st6" d="M150.7-170.2c1.7-0.9-3.8-5.2-3.3-3C147.9-171.2,149.2-169.2,150.7-170.2L150.7-170.2z"/>
		<path class="st6" d="M148.4-193.3c-0.9,0.6-0.4,2.2,0.7,2c0.5-0.1,1-0.5,1.5-1.4C149.6-193.4,149-193.7,148.4-193.3"/>
		<path class="st6" d="M86.6-193.8c-0.9,0.1-1.3,1.2-0.7,1.9c0.2,0.3,0.4,0.6,0.4,1c0.3-0.9,2.2-0.7,1.3-2.3
			C87.2-193.7,86.9-193.9,86.6-193.8"/>
		<path class="st6" d="M43.1-212.8c1.2-0.9,2.3,2.1,3.2,0.4c0.7-1.3,0.4-2.4-1.5-1.5C44.1-213.7,43.6-213.2,43.1-212.8"/>
		<path class="st6" d="M130.8-275.1c-2-0.7-3.3-2.3-4.9-1.2C126.6-273.4,128.7-275.4,130.8-275.1"/>
		<path class="st6" d="M46.4-255.3c-1,0-1.6-2.3-2.8-0.4c-0.4,0.7-0.3,0.9,0.3,1.4C45.5-252.9,45.4-255.3,46.4-255.3"/>
		<path class="st6" d="M45.7-296.1c0.4-0.7,0.1-0.9-0.4-1.1c-0.5-0.3-0.9-1.2-1.6-0.1C43.5-296.8,44.7-294.4,45.7-296.1"/>
		<path class="st6" d="M150.7-275.8c-0.7,0.8-1.7-2.5-2.7-0.4c-0.7,1.4,0.1,2.1,1.4,1.7C149.9-274.7,150.4-275.6,150.7-275.8"/>
		<path class="st6" d="M2.1-275.8c0.6,0,0.5,2.1,2,1.2c0.7-0.5,0.8-1,0.3-1.7C3.2-278.1,2.6-275.3,2.1-275.8"/>
		<path class="st6" d="M85.3-212.7c0.5-0.3,1.6,1.9,2.7,0.1c0.4-0.7,0-0.9-0.4-1.2C85.8-215.1,85.8-212.6,85.3-212.7"/>
		<path class="st6" d="M88.5-255.1c-1.4-0.2-2-0.8-2.8-1.5c0,1-1.5,1.7-0.3,2.6C86.5-253,87.1-254.5,88.5-255.1"/>
		<path class="st6" d="M148.9-235.8c0.4,0.9-2.1,1.5-0.2,2.6c0.6,0.4,0.8-0.5,1.4-1.2C151.3-236,149.5-235.1,148.9-235.8"/>
		<path class="st6" d="M85.2-276c1.1-0.1,0.6,2.3,2.1,1.3c0.4-0.3,1.3-0.5,0.8-1.3C87.2-277.6,86.2-276.5,85.2-276"/>
		<path class="st6" d="M43.7-192.7c-1.3,0.8,0.7,2.2,2.1,1.5c0.8-0.4,0.7-1,0.3-1.8C45.1-194.8,44.7-191.9,43.7-192.7"/>
		<path class="st6" d="M88.3-171.9c0.7-0.5-1.4-2.5-2.6-0.4c-0.2,0.4-1.2,0.7-0.3,1.4C86.7-169.9,87.3-171.2,88.3-171.9"/>
		<path class="st6" d="M43.6-276c0.5-0.1,0.4,2.3,2,1.2c0.5-0.3,0.7-0.7,0.4-1.3C45-277.8,44-275.8,43.6-276"/>
		<path class="st6" d="M106-172.3c1,0.1,0.8,2.5,2.5,1.1c0.4-0.3,1-0.4,0.5-1.2C108-173.8,107-172.7,106-172.3"/>
		<path class="st6" d="M128-233.2c-0.1-0.6,2.1-0.5,1.2-2c-0.3-0.5-0.7-0.8-1.3-0.5C126.2-234.8,128.4-233.7,128-233.2"/>
		<path class="st6" d="M3.7-253.8c0.6-0.7,0-3.4-0.8-2.3C2.3-255.3,3.1-254.5,3.7-253.8"/>
		<path class="st6" d="M22.9-234c0.1,0.8,0.8,0.9,1.3,1c0.8,0.2,1.2-0.6,1.2-1.1c0-0.9-1-1.3-1.5-1.9
			C23.7-235.3,23.5-234.5,22.9-234"/>
		<path class="st6" d="M4.7-234.3c-0.8-0.4-0.7-1.6-1.6-1.3c-0.4,0.1-1.4,0.4-1.1,1.2c0.2,0.5,0.3,1.5,1.3,1.2
			C3.8-233.4,4.2-233.9,4.7-234.3"/>
		<path class="st6" d="M2.2-172.4c-0.2,0.2-0.2,0.6,0,0.9c0.4,0.5,0.8,0.8,1.3,0.8c0.4-0.1,1.1-0.8,1.1-1.3c0.1-0.8-0.9-1.1-1.5-1
			C2.9-173.1,2.5-172.7,2.2-172.4"/>
		<path class="st6" d="M148.9-295c0.6-1.4,2-1.8,1.1-3.1c-0.4-0.5-0.8-0.5-1.3-0.1C147.5-297.1,148.8-296.3,148.9-295"/>
		<path class="st6" d="M128.8-172.4c-1,0.1-1.7-1.5-2.6-0.2c-0.3,0.4-0.3,0.8,0.2,1.1C129.2-169.2,133.1-173,128.8-172.4"/>
		<path class="st6" d="M44.6-173.3c-0.4,0.7-1,1.3-1,1.9c0,0.3,1,1,1.4,0.9c0.4-0.1,1.2-1,1.1-1.3C45.9-172.3,45.2-172.7,44.6-173.3
			"/>
		<path class="st6" d="M251-68.5c2-3.4,1.7-1.9,1-4.6C250.2-70.9,250.2-70.9,251-68.5"/>
		<path class="st6" d="M189.6-69.8c0.3-0.7,1.1-1.4-0.1-2.1c-0.7-0.4-0.8-0.5-1.5,0.2C186.1-69.8,189.1-68.5,189.6-69.8"/>
		<path class="st6" d="M209.1-111.8c0.8,0.9,1.1,0.5,1.8,0.1c0.7-0.5,0.6-0.8,0.2-1.4c-0.5-1-0.9-1-1.7-0.4
			C208.1-112.7,207.1-113.9,209.1-111.8"/>
		<path class="st6" d="M169.7-71.5c-0.2-0.4-0.2-1.2-1.2-0.4c-0.5,0.4-1.5,0.7-0.7,1.8c0.5,0.7,0.8,0.9,1.6,0.4
			C170.8-70.7,170.2-70.4,169.7-71.5"/>
		<path class="st6" d="M253-28.5c-2-3-3.6-2.3-2.8,0c0.3,0.8,0.6,0.2,0.8,0C251.6-29.1,252.4-28.3,253-28.5"/>
		<path class="st6" d="M250-133.7c0.7,0.7,0.2,2.9,0.9,3.8c-0.1-1.4,0.8-4.3,2.4-5.1c-1.6,0-2.5-0.4-3.2-1.7
			c-0.2,1.1,0.1,1.8-0.2,2.4C249.7-134.1,249.8-133.9,250-133.7"/>
		<path class="st6" d="M209.6-9.5c-1,1.8-1,1.9-0.4,2.5C210.3-5.9,211.5-6.7,209.6-9.5"/>
		<path class="st6" d="M252.7-50.7c0-1.2-1.7-0.6-2.1,0c-0.9,1.1,0.2,2.7,0.7,1.8C251.6-49.4,252.3-51.1,252.7-50.7"/>
		<path class="st6" d="M186.9-28.5c2.6,1.3,2.7,0.7,3.5,0.2c0.2-0.1,0.2-0.3,0-0.5C189.2-29.6,188.9-30.8,186.9-28.5"/>
		<path class="st6" d="M250.5-155c-0.3,0.5-0.4,1.1-0.1,1.7c0.2,0.6,1,0.8,1.5,0.5c0.9-0.5,0.8-1.2,0.6-2
			C252.3-155.7,251-155.9,250.5-155"/>
		<path class="st6" d="M249.6-113.4c1.5-0.3,1.5,2.4,3.1,1.6C254.8-112.8,251.2-114.2,249.6-113.4"/>
		<path class="st6" d="M169.2-9.4c-0.5-0.3-1.5,0.9-1.8,1.3c-0.4,0.5,0.1,0.7,0.5,1c0.4,0.3,0.9,0.8,1.3,0.2
			C170.6-8.6,171.2-8.4,169.2-9.4"/>
		<path class="st6" d="M250.6-9.3c-0.3,0.3-1,1.3,0,2.4c0.2,0.2,0.4,0.3,0.7,0.2c0.7-0.1,0.7-0.7,1.2-1.2c0.3-0.3,0.4-0.8,0-1.1
			C251.9-9.3,251-9.6,250.6-9.3"/>
		<path class="st6" d="M207.7-28.3c1.1,1.5,2.5,0.8,3.9,0c0.1-0.1,0.2-0.3,0.1-0.4c-1-1.1-2.3-1.4-3.9,0.1
			C207.6-28.5,207.6-28.4,207.7-28.3"/>
		<path class="st6" d="M166.7-112.3c1.9,1.3,3.3,0.3,4.4-1C168.3-113.9,168.3-113.9,166.7-112.3"/>
		<path class="st6" d="M187.4-111.5c1,0.2,2.4,0.1,3.2-0.8c0.3-0.3,0.2-0.7,0-1c-1.3-1.3-2.8-0.2-3.5,0.5
			C186.6-112.3,186.8-111.6,187.4-111.5"/>
		<path class="st6" d="M208-133c1.3,1.4,2.2,0.8,3.1,0.1c0.5-0.4,0.4-1.3-0.3-1.5C209.7-134.6,208.6-134.7,208-133"/>
		<path class="st6" d="M251.1-94c-1.8,2,0.6,3.3,1,5C251.7-90.6,253.9-92.8,251.1-94"/>
		<path class="st6" d="M188.8-134.8c0-0.1-0.2-0.2-0.3,0c-0.7,0.9-2,1.5-0.8,2.8c1,1.1,1.4-1.1,2.5-0.5
			C191.1-132.6,189.1-133.7,188.8-134.8"/>
		<path class="st6" d="M231.8-31c-2,0.6-2.4,1.5-2.8,3C230.3-28.9,232.6-28.5,231.8-31"/>
		<path class="st6" d="M211.1-70.9c0.2-0.4-0.5-2.5-2.3-1.1c-1.2,0.9-0.2,1.3,0.1,1.8C210.1-68,209.8-70.2,211.1-70.9"/>
		<path class="st6" d="M211.3-50.6c-1.4-0.2-2.6-1.9-3.2,0.8C209.7-47.8,210.2-49.3,211.3-50.6"/>
		<path class="st6" d="M189.2-7c1.6-1.8-0.2-2.2-1.2-1.9C187.3-7.9,187.4-7.4,189.2-7"/>
		<path class="st6" d="M167.4-154.6c0.4,1.3,1,2,1.8,1.8c1.1-0.2,1.5-1.6,0.6-2.3C169.3-155.5,168.4-155.3,167.4-154.6L167.4-154.6z
			"/>
		<path class="st6" d="M169.7-134.3c-0.8-0.2-1.5-0.1-2.2,0.5c-0.4,0.4-0.3,1.1,0.3,1.4c0.9,0.4,1.7,0.3,2.3-0.5
			C170.6-133.4,170.4-134.2,169.7-134.3"/>
		<path class="st6" d="M232.1-133.1c-0.7-0.9-3.9-1.7-3-0.1C230-131.6,230.9-133.2,232.1-133.1"/>
		<path class="st6" d="M271.5-113.3c-0.7,1.3-0.3,2.4,1.5,1.5C273.7-112.1,272.5-115,271.5-113.3"/>
		<path class="st6" d="M187-49.6c2,0.7,1.9,1,3.6-0.1C189.8-52.6,187.1-50.2,187-49.6"/>
		<path class="st6" d="M271.1-71.1c-0.2,0.3-0.2,0.6,0.1,0.8c0.6,0.6,1.2,1.4,2,0c0.4-0.7,0.3-0.9-0.3-1.4
			C271.8-72.7,271.5-71.7,271.1-71.1"/>
		<path class="st6" d="M271.3-28.5c-0.4,0.7,0-0.2,0.5,0.1c0.5,0.3,0.9,1.1,1.6,0C273.6-29,272.3-30.3,271.3-28.5"/>
		<path class="st6" d="M167.5-49.9c0.7-0.8,1.4,2.5,2.5,0.4c0.7-1.4,0.2-2.1-1.1-1.7C168.3-51,167.8-50.1,167.5-49.9"/>
		<path class="st6" d="M229.9-113.2c-0.4,0.7,0,0.9,0.4,1.2C232-110.7,231-114.9,229.9-113.2"/>
		<path class="st6" d="M229.1-70.3c0.5,0.2,1.3,0.4,1.9,0.8c0.2,0.1,0.4,0,0.5-0.2c0.3-0.7,1.2-1.3,0.2-2.1c-1-0.8-1.6,0.2-2.7,0.8
			C228.8-70.8,228.8-70.4,229.1-70.3"/>
		<path class="st6" d="M169.2-90c-0.4-0.9,2.1-1.5,0.2-2.6c-0.6-0.4-0.8-0.5-1.4,0.2C166.8-90.8,168.6-90.7,169.2-90"/>
		<path class="st6" d="M229.7-9c-1.1,1,0.2,2.6,1.5,1.7C232.5-8.2,230.9-8.6,229.7-9"/>
		<path class="st6" d="M231.8-49.5c0.2-0.1,0.2-0.3,0.1-0.5c-0.6-0.9-0.5-1.9-1.9-1c-0.4,0.3-1.3,0.5-0.8,1.3
			C230-48.3,230.9-49,231.8-49.5"/>
		<path class="st6" d="M270.8-8.3c0.8,0.7,1,2.3,2.5,1.1c0.6-0.5,0.3-0.7,0.1-1.2C272.3-10.5,271.7-8,270.8-8.3"/>
		<path class="st6" d="M272.1-134.4c-0.8,0.4-0.7,1-0.3,1.8C272.9-130.9,273.5-135.1,272.1-134.4"/>
		<path class="st6" d="M228.9-153.8c0.4-0.4,0.7-0.1,1,0.3c0.5,0.6,0.9,1.4,1.6,0.1c0.2-0.4,1.2-0.7,0.3-1.4
			C230.5-155.9,228.2-155.1,228.9-153.8"/>
		<path class="st6" d="M273.5-49.7c-0.5,0.1-0.4-2.3-2-1.2c-0.5,0.3-0.7,0.7-0.4,1.3C272.1-47.9,273.1-49.9,273.5-49.7"/>
		<path class="st6" d="M211.2-153.6c-0.7-0.6-0.8-2.5-2.5-1.1c-0.4,0.3-1,0.4-0.5,1.2C209.3-152.1,210.2-153.2,211.2-153.6"/>
		<path class="st6" d="M189-92.7c-0.5-0.5-2.1,0.5-1.2,2c0.3,0.5,0.7,0.8,1.3,0.5C190.8-91.1,189.7-92.2,189-92.7"/>
		<path class="st6" d="M169.1-30.8c-1.5-0.2-2,1-1.1,2.3c0.4,0.5,0.8,0.4,1.3,0C170.5-29.5,170.5-30.6,169.1-30.8"/>
		<path class="st6" d="M187.7-154.2c0.3,0.7,1.2,2.1,1.8,1.8c0.8-0.4,0.7-3-0.3-3.3c-0.7-0.2-1.1,0.5-1.6,1
			C187.5-154.5,187.6-154.4,187.7-154.2"/>
		<path class="st6" d="M271.6-153.2c0.5,0.4,1.2,0.3,1.5-0.2c0.2-0.3,0.3-0.6,0.4-0.9c0-0.3-1-1-1.4-0.9c-0.4,0.1-1.2,1-1.1,1.3
			C271.1-153.6,271.3-153.4,271.6-153.2"/>
		<path class="st6" d="M249.1-297.2c1.4,1.8,3,1.7,4.8,1C249.5-297.7,252.1-298.1,249.1-297.2"/>
		<path class="st6" d="M253.8-254.6c-3.4-2-1.9-1.7-4.6-1C251.4-253.8,251.4-253.8,253.8-254.6"/>
		<path class="st6" d="M252.3-192.2c0.2-0.3,1.5-0.6,0.2-1.1c-0.7-0.3-1.4-1.1-2.1,0.1c-0.4,0.7-0.5,0.8,0.2,1.5
			C252.4-189.8,251.6-191.2,252.3-192.2"/>
		<path class="st6" d="M210.3-212.2c0.9-0.8,0.5-1.1,0.1-1.8c-0.5-0.7-0.8-0.6-1.4-0.2C208-213.8,208.3-210.3,210.3-212.2"/>
		<path class="st6" d="M251-173.3c-0.4,0.2-1.2,0.6-0.7,2c0.2,0.6,0.7,1.5,1.8,0.7c0.7-0.5,0.9-0.8,0.4-1.6
			C251.5-173.7,251.6-173.6,251-173.3"/>
		<path class="st6" d="M189.2-252.6c-0.1-1.5,0.9-2.1,1.9-2.9c-1.4,0.1-2.2-0.6-3-2.2c0,1.6-0.4,2.5-1.7,3.2
			C187.9-254.3,188.5-253.5,189.2-252.6"/>
		<path class="st6" d="M273.5-255.3c-1.2,0-1.9-0.9-2.4-2.1c-0.3,2.8-0.2,3.7,0.3,4.2c1.1,0.9,0.7-0.5,1-0.7
			C272.9-254.2,273.2-254.8,273.5-255.3"/>
		<path class="st6" d="M210.2-299.1c-2.7,1-1.4,3-0.8,4.8C210.5-295.7,211.5-297.2,210.2-299.1"/>
		<path class="st6" d="M166.5-255.7c1.5,0.9,2.8,2.8,4.8,1C170.4-257.9,168.1-255.4,166.5-255.7"/>
		<path class="st6" d="M207.6-256.6c1.4,0.7,2.5,1.6,2.3,3.5c-0.3-1.5,2.4-1.5,1.6-3.1C210.5-258.3,208.9-255.8,207.6-256.6"/>
		<path class="st6" d="M273.5-294.1c1.7-2.1-0.7-3.4-0.8-5.1c0.2,1.8-0.3,3.2-2.3,3.7C271.7-295.7,272.9-295.5,273.5-294.1"/>
		<path class="st6" d="M209.3-169.7c2-1.2,0.9-4.4,0.9-4.4C208.5-171.8,208.5-171.8,209.3-169.7"/>
		<path class="st6" d="M210.6-191.1c0.2-1.1,0.5-2.2-0.6-2.9c-0.2-0.1-0.4-0.1-0.6,0c-1.7,1.3-0.6,2.2,0.3,3.2
			C210-190.5,210.5-190.6,210.6-191.1"/>
		<path class="st6" d="M189.1-210.8c2.2-2.1-0.5-3.2-1-4.7C188.2-213.9,186.3-211.8,189.1-210.8"/>
		<path class="st6" d="M188.1-298.8c-1.2,1.7-0.1,3,1,4.2C190-296.2,190.7-297.9,188.1-298.8"/>
		<path class="st6" d="M228-254.7c2,1.8,3.3-0.6,5-1C231.3-255.3,229.2-257.5,228-254.7"/>
		<path class="st6" d="M187.4-192.6c-0.2,0-0.3,0.3-0.1,0.4c0.8,0.7,1.4,1.9,2.6,0.7c0.9-0.8-0.4-1.2-0.6-2c0-0.2-0.2-0.3-0.4-0.2
			C188.5-193.2,188-192.7,187.4-192.6"/>
		<path class="st6" d="M251.6-214.5c0.1,0.6-2.5,0.5-1.1,2.3c0.9,1.2,1.3,0.2,1.8-0.1C254.4-213.6,250.4-213.8,251.6-214.5"/>
		<path class="st6" d="M271.7-215c-0.2,1.4-1.9,3.1,0.9,3.8C274.4-212.9,273-213.9,271.7-215"/>
		<path class="st6" d="M167.7-170.9c2-0.6,3.7-0.4,2.2-2C167.9-172.4,166.6-172.4,167.7-170.9L167.7-170.9z"/>
		<path class="st6" d="M187.8-173.1c-0.3,1-0.3,2,0.7,2.7c0.3,0.3,0.8,0.2,1-0.2c0.6-1.1,0.5-2.1-0.6-2.8
			C188.5-173.7,188-173.5,187.8-173.1"/>
		<path class="st6" d="M189.7-236.1c-0.9,0.7-1.4,1.6-2.4,1.6c0.9,0.3,0.7,2.2,2.3,1.3C191.1-234,189.5-234.8,189.7-236.1"/>
		<path class="st6" d="M209.4-277.5c0.9,1.2-2.1,2.3-0.4,3.2c1.3,0.7,2.4,0.3,1.5-1.5C210.2-276.4,209.8-276.9,209.4-277.5"/>
		<path class="st6" d="M272.4-190.5c0.7-1.2,1.5-2.6,0.6-3.9c-2.4,0.6-2.3,2.1-1.7,3.8C271.5-190.2,272.2-190.1,272.4-190.5"/>
		<path class="st6" d="M251.7-274.2c0-1,2.3-1.6,0.4-2.8c-0.7-0.4-0.9-0.3-1.4,0.3C249.2-275.1,251.6-275.2,251.7-274.2"/>
		<path class="st6" d="M271.5-170.5c0.6,0.2,1.2,0.1,1.6-0.3c0.6-0.6,0.9-1.5-0.5-2.2c-1.4-0.7-2.1,0.1-1.7,1.4
			C271.1-171.3,270.7-170.8,271.5-170.5"/>
		<path class="st6" d="M209.3-235.9c0.3,0.5-1.9,1.6-0.1,2.7c0.7,0.4,0.9,0,1.2-0.4C211.7-235.3,209.2-235.4,209.3-235.9"/>
		<path class="st6" d="M251.4-232.7c0.2-1.4,0.8-2,1.5-2.8c-1,0-1.7-1.5-2.6-0.3C249.4-234.6,250.9-234,251.4-232.7"/>
		<path class="st6" d="M231.8-171.7c0.2-0.2,0.1-0.5-0.1-0.7c-0.6-0.5-1.3-1.4-2.2,0.1c-0.4,0.6-0.5,0.8,0.2,1.4
			C231-170,231.3-171,231.8-171.7"/>
		<path class="st6" d="M272.6-236c0.1,1.1-2.3,0.6-1.3,2.1c0.3,0.4,0.5,1.3,1.3,0.8C274.1-233.9,273.1-235,272.6-236"/>
		<path class="st6" d="M189.1-277c-0.5,0.8-2.2,0.7-1.5,2.1c0.4,0.8,1,0.7,1.8,0.3C191.2-275.7,188.3-276,189.1-277"/>
		<path class="st6" d="M169-232.8c-1-1,2.5-1.4,0.4-2.6c-0.4-0.2-0.7-1.2-1.4-0.3C167-234.4,168.4-233.8,169-232.8"/>
		<path class="st6" d="M272.6-276.9c0.1,0.5-2.3,0.4-1.2,2c0.3,0.5,0.7,0.7,1.3,0.4C274.3-275.5,272.4-276.5,272.6-276.9"/>
		<path class="st6" d="M169.2-214.7c-0.1,1-2.5,0.8-1.1,2.5c0.3,0.4,0.4,1,1.2,0.5C170.8-212.7,169.7-213.6,169.2-214.7"/>
		<path class="st6" d="M229.2-192.7c0.6-0.1,0.5,2.1,2,1.2c0.5-0.3,0.8-0.7,0.5-1.3C230.8-194.5,229.7-192.3,229.2-192.7"/>
		<path class="st6" d="M230-298c-0.8,0.1-0.9,0.8-1,1.3c-0.2,0.8,0.6,1.2,1.1,1.2c0.9,0,1.3-1,1.9-1.5
			C231.3-297.2,230.6-297.3,230-298"/>
		<path class="st6" d="M169.3-191.3c0.4-0.6,0.8-1.1,0.5-1.7c-0.4-0.8-1.8-0.7-2,0.2c-0.2,0.7,0.5,1.1,1,1.6
			C169-191.1,169.2-191.1,169.3-191.3"/>
		<path class="st6" d="M170.2-275.9c-0.7-0.4-1.3-1-1.9-1c-0.3,0-1,1-0.9,1.4c0.1,0.4,1,1.2,1.3,1.1
			C169.3-274.6,169.7-275.3,170.2-275.9"/>
	</g>
</pattern>
<g id="Ebene_1">
	<g>
		<defs>
			<rect id="SVGID_1_" x="-43" y="-164.9" width="595.3" height="841.9"/>
		</defs>
		<clipPath id="SVGID_2_">
			<use xlink:href="#SVGID_1_"  style="overflow:visible;"/>
		</clipPath>
		<pattern  id="SVGID_3_" xlink:href="#Unnamed_Pattern_5" patternTransform="matrix(1 0 0 -1 0 917.7559)">
		</pattern>
		<path class="st0" d="M359.9,336.5c-2,3.2-3.4,5.5-4.9,7.9c-21.2,32.3-44.6,62.7-73.3,88.8c-11,10-22.7,19-36.2,25.5
			c-15.3,7.5-30.1,6.6-44.8-1.9c-17.3-10-30.8-24.3-43-39.8c-34.8-44.1-59.3-93.8-79.4-145.9c-10.4-26.9-19-54.3-24.2-82.6
			c-3.5-18.8-6.5-37.7-2.8-56.9c2.1-10.8,7.3-19.5,15.9-26.2c19.5-15.2,41.9-24.3,65.1-32.1c28.1-9.4,57-15.5,86.3-19.8
			c1.3-0.2,2.6,0,4.5,0c-12.7,14-12.5,30.8-9.8,46.7c12.1,72.5,40.5,138.5,81.9,199c7.4,10.8,17.4,20.1,27.1,29.1
			c9.3,8.7,21,11.1,33.5,8.2C356.7,336.3,357.7,336.5,359.9,336.5"/>
		<pattern  id="SVGID_4_" xlink:href="#Unnamed_Pattern_5" patternTransform="matrix(1 0 0 -1 0 917.7559)">
		</pattern>
		<path class="st1" d="M335,46.3c29,0.3,57.9,1.7,85.8,10.3c9.7,3,19.2,7.6,27.8,13c11.2,7.1,14.5,18.4,13.7,31.7
			c-2,34.3-10.4,66.9-23.7,98.3c-7.5,17.7-16.3,34.6-28.5,49.6c-3,3.7-6.6,7.1-10.2,10.3c-6.2,5.4-13.3,5.6-20.6,2.7
			c-10.3-4.1-18.2-11.5-25.4-19.7c-16.2-18.5-27.7-39.9-37.6-62.1c-11.3-25.1-20.3-51-24.2-78.3c-1.7-11.9-1.9-24.2-0.7-36.2
			c1.1-11.3,7.9-16.6,19.2-18.4c4.1-0.6,8.3-0.9,12.4-1.1C327,46.2,331,46.3,335,46.3"/>
		<pattern  id="SVGID_5_" xlink:href="#Unnamed_Pattern_5" patternTransform="matrix(1 0 0 -1 0 917.7559)">
		</pattern>
		<path class="st2" d="M359.9,336.5c-2,3.2-3.4,5.5-4.9,7.9c-21.2,32.3-44.6,62.7-73.3,88.8c-11,10-22.7,19-36.2,25.5
			c-15.3,7.5-30.1,6.6-44.8-1.9c-17.3-10-30.8-24.3-43-39.8c-34.8-44.1-59.3-93.8-79.4-145.9c-10.4-26.9-19-54.3-24.2-82.6
			c-3.5-18.8-6.5-37.7-2.8-56.9c2.1-10.8,7.3-19.5,15.9-26.2c19.5-15.2,41.9-24.3,65.1-32.1c28.1-9.4,57-15.5,86.3-19.8
			c1.3-0.2,2.6,0,4.5,0c-12.7,14-12.5,30.8-9.8,46.7c12.1,72.5,40.5,138.5,81.9,199c7.4,10.8,17.4,20.1,27.1,29.1
			c9.3,8.7,21,11.1,33.5,8.2C356.7,336.3,357.7,336.5,359.9,336.5"/>
		<pattern  id="SVGID_6_" xlink:href="#Unnamed_Pattern_5" patternTransform="matrix(1 0 0 -1 0 917.7559)">
		</pattern>
		<path class="st5" d="M359.9,336.5c-2,3.2-3.4,5.5-4.9,7.9c-21.2,32.3-44.6,62.7-73.3,88.8c-11,10-22.7,19-36.2,25.5
			c-15.3,7.5-30.1,6.6-44.8-1.9c-17.3-10-30.8-24.3-43-39.8c-34.8-44.1-59.3-93.8-79.4-145.9c-10.4-26.9-19-54.3-24.2-82.6
			c-3.5-18.8-6.5-37.7-2.8-56.9c2.1-10.8,7.3-19.5,15.9-26.2c19.5-15.2,41.9-24.3,65.1-32.1c28.1-9.4,57-15.5,86.3-19.8
			c1.3-0.2,2.6,0,4.5,0c-12.7,14-12.5,30.8-9.8,46.7c12.1,72.5,40.5,138.5,81.9,199c7.4,10.8,17.4,20.1,27.1,29.1
			c9.3,8.7,21,11.1,33.5,8.2C356.7,336.3,357.7,336.5,359.9,336.5z"/>
		<pattern  id="SVGID_7_" xlink:href="#Unnamed_Pattern_5" patternTransform="matrix(1 0 0 -1 0 917.7559)">
		</pattern>
		<path class="st3" d="M335,46.3c29,0.3,57.9,1.7,85.8,10.3c9.7,3,19.2,7.6,27.8,13c11.2,7.1,14.5,18.4,13.7,31.7
			c-2,34.3-10.4,66.9-23.7,98.3c-7.5,17.7-16.3,34.6-28.5,49.6c-3,3.7-6.6,7.1-10.2,10.3c-6.2,5.4-13.3,5.6-20.6,2.7
			c-10.3-4.1-18.2-11.5-25.4-19.7c-16.2-18.5-27.7-39.9-37.6-62.1c-11.3-25.1-20.3-51-24.2-78.3c-1.7-11.9-1.9-24.2-0.7-36.2
			c1.1-11.3,7.9-16.6,19.2-18.4c4.1-0.6,8.3-0.9,12.4-1.1C327,46.2,331,46.3,335,46.3"/>
		<pattern  id="SVGID_8_" xlink:href="#Unnamed_Pattern_5" patternTransform="matrix(1 0 0 -1 0 917.7559)">
		</pattern>
		<path class="st8" d="M335,46.3c29,0.3,57.9,1.7,85.8,10.3c9.7,3,19.2,7.6,27.8,13c11.2,7.1,14.5,18.4,13.7,31.7
			c-2,34.3-10.4,66.9-23.7,98.3c-7.5,17.7-16.3,34.6-28.5,49.6c-3,3.7-6.6,7.1-10.2,10.3c-6.2,5.4-13.3,5.6-20.6,2.7
			c-10.3-4.1-18.2-11.5-25.4-19.7c-16.2-18.5-27.7-39.9-37.6-62.1c-11.3-25.1-20.3-51-24.2-78.3c-1.7-11.9-1.9-24.2-0.7-36.2
			c1.1-11.3,7.9-16.6,19.2-18.4c4.1-0.6,8.3-0.9,12.4-1.1C327,46.2,331,46.3,335,46.3z"/>
	</g>
</g>
<g id="Ebene_2">
	<line class="st4" x1="188.6" y1="68.9" x2="188.6" y2="90"/>
	<polyline class="st4" points="209.4,110.2 168.2,110.2 168.2,68.9 149.2,68.9 	"/>
	<polyline class="st4" points="149.2,89.5 128.1,89.5 128.1,76.8 	"/>
	<polyline class="st4" points="107.6,110.2 149.2,110.2 149.2,152.1 128.4,152.1 128.4,172.9 169,172.9 169,132.1 188.6,132.1
		188.6,152 210.3,152 224.1,152 	"/>
	<line class="st4" x1="107.6" y1="152" x2="51.3" y2="152"/>
	<polyline class="st4" points="65.7,172.9 65.7,193.5 86.8,193.5 86.8,211.7 59.1,211.7 	"/>
	<polyline class="st4" points="107.6,193.7 149.2,193.7 149.2,211.7 169.2,211.7 	"/>
	<line class="st4" x1="169.2" y1="193.7" x2="188.6" y2="193.7"/>
	<polyline class="st4" points="243,193.7 209.5,193.7 209.5,231.8 149.5,231.8 149.5,274.7 169.2,274.7 	"/>
	<polyline class="st4" points="128,253.3 128,294.3 107.6,294.3 	"/>
	<polyline class="st4" points="107.6,232.8 86.8,232.8 86.8,253.3 	"/>
	<polyline class="st4" points="77.5,274.7 86.8,274.7 86.8,285.2 	"/>
	<polyline class="st4" points="250.5,211.7 230.7,211.7 230.7,232.8 250.5,232.8 250.5,253.3 	"/>
	<polyline class="st4" points="107.6,337.2 149.5,337.2 149.5,295 188.8,295 188.8,316.1 210.2,316.1 210.2,337.2 	"/>
	<polyline class="st4xl" points="251.8,316.1 292.3,316.1 292.3,295 272.1,295 272.1,274.7 230.7,274.7 230.7,253.3 188.5,253.3
		188.5,274.7 210.2,274.7 210.2,295 230.7,295 230.7,357.5 251.5,357.5 251.5,337.2 273,337.2 273,376.2 230.2,376.2 230.2,395.8
		272.7,395.8 272.7,416.7 229.8,416.7 	"/>
	<line class="st4" x1="188.5" y1="337.2" x2="188.5" y2="395.5"/>
	<polyline class="st4" points="169.2,357.7 148.8,357.7 148.8,375.5 169.2,375.5 169.2,416.7 209.3,416.7 	"/>
	<polyline class="st4" points="284,437.7 250.3,437.7 250.3,456.2 	"/>
	<polyline class="st4" points="231,465.8 231,459 197,459 	"/>
	<polyline class="st4" points="179.8,437 189.2,437 189.2,446.9 	"/>
	<polyline class="st4" points="304.8,416.7 292.3,416.7 292.3,357.7 333.5,357.7 333.5,376 312.9,376 312.9,396.2 323,396.2 	"/>
	<line class="st4" x1="354.3" y1="336.9" x2="354.3" y2="347.8"/>
	<polyline class="st4" points="374.7,253.3 374.7,232.5 396.3,232.5 	"/>
	<polyline class="st4" points="334,211.7 374.7,211.7 374.7,193.7 354.3,193.7 354.3,171.7 	"/>
	<polyline class="st4" points="396.3,193.7 437,193.7 437,208.3 	"/>
	<polyline class="st4" points="313,172.9 313,152 396.3,152 	"/>
	<polyline class="st4" points="298.2,131.3 313,131.3 313,110.2 293.4,110.2 	"/>
	<polyline class="st4" points="448.7,174 416.7,174 416.7,153.3 437,153.3 437,110.3 396.3,110.3 	"/>
	<line class="st4" x1="457.7" y1="152.3" x2="457.7" y2="132.7"/>
	<polyline class="st4" points="334,109 334,89.5 313,89.5 313,68.9 334,68.9 334,50.7 	"/>
	<line class="st4" x1="293.4" y1="89.5" x2="293.4" y2="61"/>
	<polyline class="st4" points="374.7,90 374.7,68.9 416.7,68.9 416.7,89.5 438.3,89.5 	"/>
	<polyline class="st4" points="466,110.3 457.7,110.3 457.7,68.9 437,68.9 437,57.7 	"/>
</g>
</svg>
